<!--?xml version="1.0" standalone="no"?-->
              <svg id="sw-js-blob-svg" viewBox="0 0 100 100" xmlns="http://www.w3.org/2000/svg" version="1.1">
                    <defs> 
                        <linearGradient id="sw-gradient" x1="0" x2="1" y1="1" y2="0">
                            <stop id="stop1" stop-color="rgba(248, 117, 55, 1)" offset="0%"></stop>
                            <stop id="stop2" stop-color="rgba(251, 168, 31, 1)" offset="100%"></stop>
                        </linearGradient>
                    </defs>
                <path fill="url(#sw-gradient)" d="M14,-22C14.8,-16,9.9,-8.4,8,-3.7C6.2,1.1,7.5,3.1,9.2,10.3C11,17.5,13.2,29.9,9.8,34.6C6.3,39.2,-2.8,36,-8.1,30.5C-13.3,25,-14.7,17.1,-19.8,10.4C-24.9,3.7,-33.7,-1.9,-36.2,-9.6C-38.7,-17.3,-34.8,-27,-27.7,-31.9C-20.6,-36.7,-10.3,-36.6,-1.8,-34.4C6.6,-32.2,13.2,-27.9,14,-22Z" width="100%" height="100%" transform="translate(50 50)" stroke-width="0" style="transition: all 0.3s ease 0s;"></path>
              </svg>