<svg width="18" height="20" viewBox="0 0 18 20" fill="none" xmlns="http://www.w3.org/2000/svg">
<path fill-rule="evenodd" clip-rule="evenodd" d="M12.5241 0L5.01015 0.00391092C1.96983 0.0226347 0 2.07033 0 5.14726V14.1385C0 17.233 1.98725 19.2857 5.0463 19.2857L12.5603 19.2828C15.6006 19.2641 17.5714 17.2154 17.5714 14.1385V5.14726C17.5714 2.05291 15.5834 0 12.5241 0ZM5.01453 1.28967L12.5249 1.28577C14.8643 1.28577 16.2861 2.75397 16.2861 5.14731V14.1385C16.2861 16.5176 14.8766 17.9828 12.5568 17.9971L5.04647 18.0001C2.70724 18.0001 1.28613 16.5321 1.28613 14.1385V5.14731C1.28613 2.76818 2.69467 1.30396 5.01453 1.28967ZM8.35686 4.71423C8.7119 4.71423 8.99972 5.00205 8.99972 5.35709C8.99972 5.68254 8.75787 5.95151 8.4441 5.99408L8.35686 5.99995H5.78544C5.4304 5.99995 5.14258 5.71213 5.14258 5.35709C5.14258 5.03164 5.38442 4.76267 5.6982 4.7201L5.78544 4.71423H8.35686ZM13.2854 9.64286C13.2854 9.28782 12.9976 9 12.6426 9H5.78544L5.6982 9.00587C5.38442 9.04844 5.14258 9.3174 5.14258 9.64286C5.14258 9.9979 5.4304 10.2857 5.78544 10.2857H12.6426L12.7298 10.2798C13.0436 10.2373 13.2854 9.96831 13.2854 9.64286ZM13.2854 13.9286C13.2854 13.5736 12.9976 13.2858 12.6426 13.2858H5.78544L5.6982 13.2916C5.38442 13.3342 5.14258 13.6032 5.14258 13.9286C5.14258 14.2837 5.4304 14.5715 5.78544 14.5715H12.6426L12.7298 14.5656C13.0436 14.523 13.2854 14.2541 13.2854 13.9286Z" fill="#B1BDD9"/>
</svg>
