<svg width="22" height="23" viewBox="0 0 22 23" fill="none" xmlns="http://www.w3.org/2000/svg">
<path fill-rule="evenodd" clip-rule="evenodd" d="M21.2511 9.59125C21.8443 8.37768 21.3727 6.92626 20.1795 6.29316L18.6183 5.46481L18.313 3.72408C18.0796 2.39364 16.8448 1.49649 15.5074 1.68571L13.7576 1.93323L12.4874 0.704431C11.5165 -0.234807 9.99035 -0.234824 9.01954 0.704464L7.74932 1.93335L5.99949 1.68583C4.66197 1.49654 3.42735 2.39365 3.19395 3.72419L2.88862 5.46492L1.32748 6.29325C0.134277 6.92628 -0.337346 8.3778 0.255853 9.59137L1.03197 11.1791L0.255819 12.7669C-0.337382 13.9805 0.134228 15.4319 1.32744 16.065L2.88863 16.8933L3.19395 18.6341C3.40455 19.8346 4.43754 20.6976 5.64442 20.6975C5.76254 20.6975 5.88127 20.6891 5.99953 20.6724L7.74936 20.4249L9.01957 21.6537C9.49216 22.1108 10.1119 22.3581 10.7535 22.3581C11.395 22.3581 12.015 22.1107 12.4874 21.6536L13.7576 20.4249L15.5075 20.6724C16.8451 20.8616 18.0796 19.9646 18.313 18.634L18.6184 16.8933L20.1795 16.065C21.3727 15.4319 21.8443 13.9804 21.2511 12.7669L20.475 11.179L21.2511 9.59125ZM19.2806 11.7414L20.0652 13.3465C20.3458 13.9204 20.1251 14.5996 19.5608 14.8989L17.9826 15.7364C17.6325 15.9222 17.3901 16.2559 17.3216 16.6461L17.0128 18.406C16.9024 19.0353 16.325 19.4549 15.6923 19.3654L13.9233 19.1152C13.5305 19.06 13.1385 19.1873 12.8538 19.4627L11.5696 20.7049C11.345 20.9223 11.0547 21.0381 10.7535 21.0381C10.4521 21.0381 10.1621 20.9224 9.93735 20.7049L8.65327 19.4627C8.36827 19.1871 7.97581 19.0595 7.58337 19.1152L5.81465 19.3654C5.75766 19.3735 5.70071 19.3775 5.64436 19.3775C5.07707 19.3775 4.59368 18.9737 4.4941 18.406L4.18544 16.6462C4.11689 16.2558 3.87439 15.922 3.52428 15.7363L1.94612 14.8989C1.38184 14.5995 1.16119 13.9205 1.44172 13.3466L2.22636 11.7415C2.4004 11.3854 2.4004 10.9729 2.22638 10.6168L1.44176 9.01168C1.16123 8.43778 1.38189 7.75864 1.94614 7.45929L3.52441 6.62187C3.87449 6.43606 4.11691 6.10235 4.18542 5.71208L4.4941 3.95225C4.60448 3.32299 5.18206 2.9033 5.81456 2.99281L7.58363 3.24305C7.97639 3.29834 8.36845 3.17098 8.65322 2.8955L9.93737 1.65314C10.3965 1.20895 11.1105 1.20896 11.5696 1.65315L12.8537 2.89537C13.1385 3.17088 13.5307 3.29835 13.9231 3.24296L15.6923 2.99269C16.3247 2.90322 16.9025 3.32301 17.0128 3.95214L17.3215 5.71195C17.3901 6.10236 17.6325 6.43614 17.9827 6.62183L19.5608 7.45919C20.1251 7.75859 20.3457 8.43766 20.0652 9.01157L19.2806 10.6167C19.1259 10.9332 19.1087 11.2943 19.229 11.6207L19.2806 11.7414ZM14.3284 6.74609C14.5653 6.50917 14.9495 6.50917 15.1864 6.74609C15.4233 6.98305 15.4233 7.36716 15.1863 7.60412L7.17844 15.612C7.06002 15.7305 6.9047 15.7897 6.74946 15.7897C6.59423 15.7897 6.43895 15.7305 6.32049 15.612C6.08357 15.3751 6.08357 14.9909 6.32049 14.754L14.3284 6.74609ZM6.10214 7.9434C6.10214 6.71679 7.10008 5.71885 8.32668 5.71885C9.55329 5.71885 10.5512 6.71679 10.5512 7.9434C10.5512 9.17 9.55329 10.1679 8.32668 10.1679C7.10008 10.1679 6.10214 9.17 6.10214 7.9434ZM7.31555 7.94336C7.31555 8.50094 7.76914 8.95453 8.32668 8.95453C8.88423 8.95453 9.33781 8.50094 9.33785 7.94336C9.33785 7.38581 8.88423 6.93222 8.32668 6.93222C7.76914 6.93222 7.31555 7.38581 7.31555 7.94336ZM13.1802 12.1902C11.9536 12.1902 10.9556 13.1881 10.9556 14.4147C10.9556 15.6413 11.9536 16.6393 13.1802 16.6393C14.4068 16.6393 15.4047 15.6413 15.4047 14.4147C15.4047 13.1881 14.4068 12.1902 13.1802 12.1902ZM13.1802 15.4259C12.6226 15.4259 12.169 14.9723 12.169 14.4147C12.169 13.8572 12.6226 13.4036 13.1802 13.4036C13.7377 13.4036 14.1913 13.8572 14.1913 14.4147C14.1913 14.9723 13.7377 15.4259 13.1802 15.4259Z" fill="#B1BDD9"/>
</svg>
