<svg width="21" height="21" viewBox="0 0 21 21" fill="none" xmlns="http://www.w3.org/2000/svg">
<path fill-rule="evenodd" clip-rule="evenodd" d="M8.9425 19.3631C9.45969 19.6863 9.86642 19.9115 10.1087 20.0326C10.355 20.1558 10.645 20.1558 10.8913 20.0326C11.1336 19.9115 11.5403 19.6863 12.0575 19.3631C12.9151 18.8271 13.7726 18.2054 14.5762 17.5023C16.935 15.4383 18.375 13.0983 18.375 10.5V3.5C18.375 3.09849 18.1017 2.74851 17.7122 2.65113L10.7122 0.901125C10.5729 0.866292 10.4271 0.866292 10.2878 0.901125L3.28778 2.65113C2.89826 2.74851 2.625 3.09849 2.625 3.5V10.5C2.625 13.0983 4.06504 15.4383 6.42381 17.5023C7.22745 18.2054 8.0849 18.8271 8.9425 19.3631ZM13.4238 16.1852C12.6962 16.8219 11.913 17.3897 11.13 17.8791C10.905 18.0197 10.6937 18.1452 10.5 18.2549C10.3063 18.1452 10.095 18.0197 9.87 17.8791C9.08698 17.3897 8.3038 16.8219 7.57619 16.1852C5.55996 14.421 4.375 12.4955 4.375 10.5V4.18318L10.5 2.65193L16.625 4.18318V10.5C16.625 12.4955 15.44 14.421 13.4238 16.1852Z" fill="black"/>
<mask id="mask0_3862_9795" style="mask-type:alpha" maskUnits="userSpaceOnUse" x="2" y="0" width="17" height="21">
<path fill-rule="evenodd" clip-rule="evenodd" d="M8.9425 19.3631C9.45969 19.6863 9.86642 19.9115 10.1087 20.0326C10.355 20.1558 10.645 20.1558 10.8913 20.0326C11.1336 19.9115 11.5403 19.6863 12.0575 19.3631C12.9151 18.8271 13.7726 18.2054 14.5762 17.5023C16.935 15.4383 18.375 13.0983 18.375 10.5V3.5C18.375 3.09849 18.1017 2.74851 17.7122 2.65113L10.7122 0.901125C10.5729 0.866292 10.4271 0.866292 10.2878 0.901125L3.28778 2.65113C2.89826 2.74851 2.625 3.09849 2.625 3.5V10.5C2.625 13.0983 4.06504 15.4383 6.42381 17.5023C7.22745 18.2054 8.0849 18.8271 8.9425 19.3631ZM13.4238 16.1852C12.6962 16.8219 11.913 17.3897 11.13 17.8791C10.905 18.0197 10.6937 18.1452 10.5 18.2549C10.3063 18.1452 10.095 18.0197 9.87 17.8791C9.08698 17.3897 8.3038 16.8219 7.57619 16.1852C5.55996 14.421 4.375 12.4955 4.375 10.5V4.18318L10.5 2.65193L16.625 4.18318V10.5C16.625 12.4955 15.44 14.421 13.4238 16.1852Z" fill="white"/>
</mask>
<g mask="url(#mask0_3862_9795)">
<rect width="21" height="21" fill="#B1BDD9"/>
</g>
</svg>
